<?xml version="1.0" encoding="UTF-8"?>
<svg width="318px" height="24px" viewBox="0 0 318 24" version="1.1" xmlns="http://www.w3.org/2000/svg" xmlns:xlink="http://www.w3.org/1999/xlink">
    <!-- Generator: Sketch 50 (54983) - http://www.bohemiancoding.com/sketch -->
    <title>envato-elements</title>
    <desc>Created with Sketch.</desc>
    <defs></defs>
    <g id="Page-1" stroke="none" stroke-width="1" fill="none" fill-rule="evenodd">
        <g id="envato-elements" transform="translate(-614.000000, -1.000000)">
            <g id="-Resources" transform="translate(616.649401, 0.879963)" fill-rule="nonzero">
                <g id="Desktop">
                    <g id="Imported-Layers-Copy-8" transform="translate(0.000000, 0.334818)">
                        <path d="M12.6408454,3.752507 C12.1587233,3.4847281 10.7759993,3.65043884 9.11529006,4.16438222 C6.20874802,6.15110949 3.75550906,9.07806506 3.58439474,13.7780048 C3.55317388,13.8908801 3.26678249,13.7629952 3.20974443,13.7281716 C2.42502016,12.2235667 2.11401237,10.6397082 2.76965041,8.3545818 C2.89153186,8.15104582 2.49226507,7.90067832 2.4202169,7.97212593 C2.27672104,8.11622226 1.67692034,8.75504885 1.27885443,9.44611076 C-0.695264498,12.8707987 0.595597916,17.2591308 4.04970556,19.1792131 C7.50261248,21.1028987 11.8633255,19.8618696 13.7864102,16.4077619 C16.0102964,12.4210987 13.9449167,4.481394 12.6408454,3.752507" id="Fill-1" fill="#7AAC41"></path>
                        <path d="M25.0019035,5.66598537 C20.907168,5.66598537 17.9351824,8.71001937 17.9351824,12.903821 C17.9351824,17.1318453 20.8993627,20.0852188 25.1441986,20.0852188 C27.288231,20.0852188 28.9861652,19.414571 30.335867,18.0342485 C30.7393364,17.5989579 30.7825653,17.1798779 30.7825653,17.01897 C30.7825653,16.3351131 30.2740259,15.8385816 29.5733574,15.8385816 C29.2203221,15.8385816 28.9249243,15.9718703 28.5862984,16.28528 C27.8219875,16.9973555 26.8151153,17.7256424 25.1441986,17.7256424 C22.8206461,17.7256424 20.9311839,15.9808767 20.8123046,13.7407798 L30.059683,13.7407798 C31.0653542,13.7407798 31.5534811,13.2706664 31.5534811,12.3040199 C31.5534811,12.0194298 31.5534811,11.8134924 31.4964459,11.4082217 C30.9981124,7.81241909 28.5706909,5.66598537 25.0019066,5.66598537 L25.0019035,5.66598537 Z M25.0019035,7.91148594 C27.2221872,7.91148594 28.6463382,9.32603036 28.7345974,11.6099564 L20.8153062,11.6099564 C21.0230457,9.49654483 22.8098393,7.91148594 25.0019035,7.91148594 Z" id="Fill-2" fill="#131412"></path>
                        <path d="M40.3847804,5.66598537 C38.5247379,5.66598537 36.6827074,6.73529984 35.9634268,8.22069216 L35.9634268,7.30327928 C35.9634268,5.880929 34.8610902,5.80888091 34.6401433,5.80888091 C33.9875067,5.80888091 33.2892404,6.20154324 33.2892404,7.30327928 L33.2892404,18.3908871 C33.2892404,19.8672734 34.4624237,19.9417226 34.6977816,19.9417226 C34.9325379,19.9417226 36.1063221,19.8672742 36.1063221,18.3908871 L36.1063221,12.4469159 C36.1063221,9.86098798 37.5719015,8.05438117 39.6703035,8.05438117 C41.7020608,8.05438117 42.690321,9.38787222 42.690321,12.1323059 L42.690321,18.3908871 C42.690321,19.8672734 43.8641052,19.9417226 44.0994623,19.9417226 C44.3342193,19.9417226 45.5074034,19.8672742 45.5074034,18.3908871 L45.5074034,11.2467136 C45.5074034,8.54851126 44.1619043,5.66598537 40.3847804,5.66598537" id="Fill-3" fill="#131412"></path>
                        <path d="M58.2533188,5.80888091 C57.6024835,5.80888091 57.1305688,6.1889348 56.8489803,6.93583375 L52.9950057,16.6275085 L49.1704501,6.93583375 C48.8708504,6.17752716 48.4025375,5.80888091 47.7372928,5.80888091 C46.960974,5.80888091 46.3287516,6.41528599 46.3287516,7.16038382 C46.3287516,7.34470699 46.349769,7.58366662 46.5058702,7.95711636 L50.935029,18.4155032 C51.4627816,19.6775467 52.3309621,19.9417226 52.9661861,19.9417226 C53.601411,19.9417226 54.4701909,19.6775467 54.9991445,18.4161034 L59.4571229,7.89947721 C59.6096247,7.53083127 59.6330404,7.26005038 59.6330404,7.13156456 C59.6330404,6.37806115 59.0392441,5.80888091 58.2533188,5.80888091" id="Fill-4" fill="#131412"></path>
                        <path d="M66.4445912,5.66598537 C64.6427873,5.66598537 62.9646663,6.16792079 61.7200347,7.07812889 C61.2979524,7.36932339 61.0926159,7.73256606 61.0926159,8.18947115 C61.0926159,8.81809104 61.5729367,9.31162096 62.1871464,9.31162096 C62.4525243,9.31162096 62.7503235,9.20534979 63.0229049,9.0144227 C64.0928201,8.30114613 65.0984921,7.96852339 66.1870194,7.96852339 C68.2698109,7.96852339 69.4652096,9.027631 69.4652096,10.8750654 L69.4652096,11.18127 C64.789886,11.1861113 60.0347086,11.7510511 60.0347086,15.8181682 C60.0347086,18.7457238 62.53658,20.0563992 65.0156366,20.0563992 C66.9903557,20.0563992 68.5670092,19.2740765 69.5786851,17.7928873 L69.5786851,18.5049628 C69.5786851,19.5658717 70.2913615,19.9417226 70.9025696,19.9417226 C71.0310554,19.9417226 72.1676147,19.9014937 72.1676147,18.5049628 L72.1676147,11.0467802 C72.1676147,7.67732919 70.0271848,5.66598537 66.4445912,5.66598537 Z M68.8726136,13.2550559 L69.4652096,13.2550559 L69.4652096,13.9040892 C69.4652096,16.2774748 67.9539998,17.8108993 65.615437,17.8108993 C64.9808131,17.8108993 62.9094294,17.6632004 62.9094294,15.76113 C62.9094294,13.5150291 66.3125029,13.2550559 68.8726136,13.2550559 Z" id="Fill-5" fill="#131412"></path>
                        <path d="M79.5033162,8.36839103 C80.7359422,8.36839103 80.7983796,7.4095503 80.7983796,7.21742188 C80.7983796,6.64704084 80.4579516,6.03763369 79.5033162,6.03763369 L76.9690257,6.03763369 L76.9690257,3.47392093 C76.9690257,2.32895599 76.2257262,1.92248443 75.589301,1.92248443 C75.3539431,1.92248443 74.1807598,1.99693442 74.1807598,3.47392093 L74.1807598,15.6476538 C74.1807598,18.4569309 75.5664854,19.9417226 78.1890413,19.9417226 C78.867492,19.9417226 79.5285294,19.821643 79.9608192,19.6205084 C80.4567528,19.3731433 80.7407451,18.9666715 80.7407451,18.5049628 C80.7407451,17.8541282 80.2688258,17.3822128 79.6173942,17.3822128 C79.4919046,17.3822128 79.3129916,17.412836 79.1160582,17.4698711 C78.8746925,17.5299109 78.7113869,17.5539276 78.5324663,17.5539276 C77.4655511,17.5539276 76.9690257,16.8574626 76.9690257,15.3612624 L76.9690257,8.36839103 L79.5033162,8.36839103" id="Fill-6" fill="#131412"></path>
                        <path d="M88.8185405,5.66598537 C84.5580956,5.66598537 81.4666252,8.68600344 81.4666252,12.8461826 C81.4666252,14.8719359 82.2153286,16.7181692 83.5746353,18.0444551 C84.9237368,19.3605344 86.7855783,20.0852188 88.8185405,20.0852188 C93.0261537,20.0852188 96.199273,16.9733396 96.199273,12.8461826 C96.199273,8.68600344 93.0945928,5.66598537 88.8185405,5.66598537 Z M88.8185405,17.6968228 C85.8963849,17.6968228 84.3689698,15.2567933 84.3689698,12.8461826 C84.3689698,9.53436999 86.6751044,8.0255616 88.8185405,8.0255616 C90.9613695,8.0255616 93.2681111,9.53436999 93.2681111,12.8461826 C93.2681111,16.1790089 90.9613695,17.6968228 88.8185405,17.6968228 Z" id="Fill-7" fill="#131412"></path>
                        <path d="M104.745983,5.35197559 C103.648445,5.35197559 102.621159,5.66598537 101.692943,6.28499897 C100.771928,6.89920931 100.038832,7.76378707 99.515887,8.8541157 C98.9983366,9.9324356 98.7353617,11.1326379 98.7353617,12.4216989 L98.7353617,12.9758688 C98.7353617,14.2679321 99.0073429,15.4621297 99.5441049,16.526041 C100.084463,17.5989579 100.84517,18.4557298 101.804017,19.0729427 C102.767059,19.6937573 103.839976,20.0083674 104.992144,20.0083674 C107.08334,20.0083674 108.68641,19.2224421 109.758728,17.6722067 C109.889012,17.4830802 109.843389,17.2237071 109.656061,17.0904176 L109.187746,16.7577956 C109.004622,16.6281095 108.751852,16.6647335 108.613161,16.8418521 C108.172472,17.4068297 107.66153,17.8289112 107.09655,18.0966905 C106.528573,18.3662703 105.820698,18.5025613 104.992144,18.5025613 C104.143779,18.5025613 103.345848,18.2612002 102.618761,17.7850821 C101.885066,17.304161 101.300875,16.62991 100.881195,15.7809432 C100.456114,14.9217691 100.241168,13.9731353 100.241168,12.9620596 L100.241168,12.6576562 L109.806764,12.6576562 C110.038516,12.6576562 110.227043,12.4691306 110.227043,12.236775 L110.227043,11.5349063 C110.227043,9.71328911 109.714295,8.21468818 108.704423,7.08113088 C107.68194,5.93436474 106.349652,5.35197559 104.745983,5.35197559 Z M100.338432,11.1518502 C100.53777,9.96305644 101.012687,8.96218737 101.752983,8.1714592 C102.580331,7.28766885 103.558988,6.85778168 104.745983,6.85778168 C105.489276,6.85778168 106.168934,7.05291201 106.765728,7.43716869 C107.366733,7.82442782 107.846452,8.37679645 108.192282,9.07926617 C108.50689,9.71869292 108.682207,10.4145577 108.715235,11.1518502 L100.338432,11.1518502 Z" id="Fill-8" fill="#7AAC41"></path>
                        <path d="M113.066942,0.171714725 L112.401694,0.171714725 C112.169942,0.171714725 111.981415,0.35964027 111.981415,0.591995511 L111.981415,19.5046307 C111.981415,19.7369863 112.169942,19.9249118 112.401694,19.9249118 L113.066942,19.9249118 C113.299294,19.9249118 113.487221,19.7369863 113.487221,19.5046307 L113.487221,0.591995511 C113.487221,0.35964027 113.299294,0.171714725 113.066942,0.171714725" id="Fill-9" fill="#7AAC41"></path>
                        <path d="M121.236,5.35197559 C120.138462,5.35197559 119.111176,5.66598537 118.18296,6.28499897 C117.261945,6.89920931 116.528849,7.76378707 116.005904,8.8541157 C115.488354,9.9324356 115.225379,11.1326379 115.225379,12.4216989 L115.225379,12.9758688 C115.225379,14.2679321 115.49736,15.4621297 116.034122,16.526041 C116.57448,17.599558 117.335187,18.4563308 118.292827,19.0729427 C119.256477,19.6937573 120.329394,20.0083674 121.482161,20.0083674 C123.572758,20.0083674 125.176427,19.2224421 126.248145,17.6722067 C126.37903,17.4830802 126.333398,17.2237071 126.146078,17.0904176 L125.677763,16.7577956 C125.494639,16.6281095 125.241869,16.6647335 125.103178,16.8418521 C124.662489,17.4062287 124.151547,17.828311 123.585968,18.0966905 C123.017991,18.3662703 122.310116,18.5025613 121.482161,18.5025613 C120.633796,18.5025613 119.835258,18.2612002 119.108171,17.7850821 C118.374484,17.304161 117.789693,16.62991 117.370613,15.7809432 C116.946131,14.9223692 116.731185,13.9737355 116.731185,12.9620596 L116.731185,12.6576562 L126.296781,12.6576562 C126.528534,12.6576562 126.71706,12.4691306 126.71706,12.236775 L126.71706,11.5349063 C126.71706,9.71328911 126.204312,8.21468818 125.19444,7.08113088 C124.171957,5.93436474 122.83967,5.35197559 121.236,5.35197559 Z M116.828449,11.1518502 C117.027788,9.96305644 117.502704,8.96218737 118.243,8.1714592 C119.070348,7.28766885 120.049005,6.85778168 121.236,6.85778168 C121.989499,6.85778168 122.649337,7.04750843 123.255145,7.43716869 C123.856151,7.82442782 124.33587,8.37679645 124.6817,9.07926617 C124.995708,9.71869292 125.171624,10.4151587 125.205252,11.1518502 L116.828449,11.1518502 Z" id="Fill-10" fill="#7AAC41"></path>
                        <path d="M143.420817,5.47565823 C142.244035,5.47565823 141.165108,5.78606562 140.213478,6.39787437 C139.568048,6.81395238 139.039093,7.33089775 138.632017,7.94210602 C138.343829,7.22882952 137.918739,6.67586011 137.361567,6.28920176 C136.582848,5.74944118 135.580184,5.47565823 134.382984,5.47565823 C133.281242,5.47565823 132.263562,5.79987486 131.358162,6.43930207 C130.875438,6.77972953 130.450956,7.19760866 130.087113,7.68993802 L130.087113,6.14210351 C130.087113,5.90974826 129.899186,5.72182271 129.666826,5.72182271 L128.990174,5.72182271 C128.757822,5.72182271 128.569895,5.90974826 128.569895,6.14210351 L128.569895,19.4644041 C128.569895,19.6967589 128.757822,19.8852853 128.990174,19.8852853 L129.666826,19.8852853 C129.899186,19.8852853 130.087113,19.6967589 130.087113,19.4644041 L130.087113,11.0918104 C130.257626,10.2368389 130.600452,9.44430949 131.104193,8.73763784 C131.955555,7.55544775 133.015869,6.98086385 134.345752,6.98086385 C135.478708,6.98086385 136.303067,7.26245198 136.795396,7.81782291 C137.302127,8.38820425 137.562105,9.29841189 137.569912,10.5214291 L137.569912,19.4644041 C137.569912,19.6967589 137.757832,19.8852853 137.990191,19.8852853 L138.655432,19.8852853 C138.887192,19.8852853 139.075718,19.6967589 139.075718,19.4644041 L139.074181,10.6379069 C139.117446,10.0417091 139.38759,9.40408289 139.878122,8.74364182 C140.747504,7.58006423 141.896068,7.00367913 143.388065,6.98086385 C144.532433,6.96105063 145.318953,7.2528456 145.825091,7.85805027 C146.343841,8.47766381 146.607415,9.47733178 146.607415,10.8294349 L146.607415,19.4644041 C146.607415,19.6967589 146.795342,19.8852853 147.027701,19.8852853 L147.692343,19.8852853 C147.924694,19.8852853 148.112621,19.6967589 148.112621,19.4644041 L148.112621,10.7699953 C148.104245,9.04924549 147.711554,7.72776318 146.945445,6.84036998 C146.163122,5.93436474 144.977326,5.47565823 143.420486,5.47565823" id="Fill-11" fill="#7AAC41"></path>
                        <path d="M155.94879,5.35197559 C154.851259,5.35197559 153.823966,5.66598537 152.89575,6.28499897 C151.974735,6.89920931 151.241647,7.76378707 150.718694,8.8541157 C150.201151,9.9324356 149.938169,11.1326379 149.938169,12.4216989 L149.938169,12.9758688 C149.938169,14.2679321 150.210157,15.4621297 150.746912,16.526041 C151.28727,17.5989579 152.047385,18.4557298 153.006224,19.0735429 C153.970465,19.6937573 155.042783,20.0083674 156.194951,20.0083674 C158.285548,20.0083674 159.889217,19.2224421 160.961534,17.6722067 C161.091827,17.4830802 161.046196,17.2237071 160.858868,17.0904176 L160.390553,16.7577956 C160.207436,16.6281095 159.954667,16.6647335 159.815975,16.8418521 C159.374679,17.4068297 158.864337,17.8289112 158.298757,18.0972906 C157.73138,18.3662703 157.023505,18.5025613 156.194951,18.5025613 C155.346586,18.5025613 154.548055,18.2612002 153.821568,17.7850821 C153.08848,17.3047612 152.504289,16.6305109 152.083403,15.7809432 C151.658921,14.9217691 151.443975,13.9725352 151.443975,12.9620596 L151.443975,12.6576562 L161.009571,12.6576562 C161.241323,12.6576562 161.42985,12.4691306 161.42985,12.236775 L161.42985,11.5349063 C161.42985,9.71328911 160.91711,8.21468818 159.90723,7.08113088 C158.884747,5.93436474 157.552459,5.35197559 155.94879,5.35197559 Z M151.541246,11.1518502 C151.740577,9.96305644 152.215493,8.96218737 152.95579,8.1714592 C153.783138,7.28766885 154.761795,6.85778168 155.94879,6.85778168 C156.702288,6.85778168 157.362734,7.04750843 157.968535,7.43716869 C158.56894,7.82442782 159.04866,8.37679645 159.395089,9.07926617 C159.709697,9.71929309 159.885021,10.4151587 159.918042,11.1518502 L151.541246,11.1518502 Z" id="Fill-12" fill="#7AAC41"></path>
                        <path d="M169.123392,5.45224262 C168.013251,5.45224262 166.986564,5.78066204 166.07275,6.42849483 C165.59363,6.76832189 165.173951,7.17539385 164.81551,7.64730913 L164.81551,6.11868783 C164.81551,5.88633258 164.626983,5.69840703 164.395231,5.69840703 L163.72999,5.69840703 C163.49823,5.69840703 163.309704,5.88633258 163.309704,6.11868783 L163.309704,19.4409884 C163.309704,19.6733439 163.49823,19.8618696 163.72999,19.8618696 L164.395231,19.8618696 C164.626983,19.8618696 164.81551,19.6733439 164.81551,19.4409884 L164.81551,10.9651258 C165.0941,9.78413655 165.624253,8.80848528 166.392767,8.06278659 C167.159476,7.31949011 168.040869,6.95804864 169.086167,6.95804864 C170.198107,6.95804864 171.009248,7.2528456 171.497981,7.83463452 C172.004711,8.43923848 172.265888,9.41488975 172.273696,10.7321701 L172.273696,19.4409884 C172.273696,19.6733439 172.461623,19.8618696 172.693974,19.8618696 L173.358616,19.8618696 C173.590975,19.8618696 173.779502,19.6733439 173.779502,19.4409884 L173.779502,10.7465795 C173.770511,9.01802525 173.382038,7.69474089 172.624928,6.81155071 C171.851011,5.90974826 170.673023,5.45224262 169.123392,5.45224262" id="Fill-13" fill="#7AAC41"></path>
                        <path d="M182.084246,18.3962902 C180.742952,18.5878182 179.986449,18.5355836 179.628008,18.0090314 C179.369836,17.6289778 179.238945,17.0039604 179.238945,16.1495891 L179.238945,7.10394609 L181.847691,7.10394609 C182.080043,7.10394609 182.26797,6.91602053 182.26797,6.68366529 L182.26797,6.01902127 C182.26797,5.78666602 182.080043,5.59874047 181.847691,5.59874047 L179.238945,5.59874047 L179.238945,2.42381937 C179.238945,2.19146412 179.051025,2.00293817 178.818666,2.00293817 L178.141414,2.00293817 C177.909062,2.00293817 177.721135,2.19146412 177.721135,2.42381937 L177.721135,5.59874047 L175.679167,5.59874047 C175.446815,5.59874047 175.258288,5.78666602 175.258288,6.01902127 L175.258288,6.68366529 C175.258288,6.91602053 175.446815,7.10394609 175.679167,7.10394609 L177.721135,7.10394609 L177.721135,16.2384485 C177.730741,17.5040945 177.968503,18.4197059 178.45002,19.0387193 C178.950157,19.6817494 179.761897,20.0083674 180.862433,20.0083674 C181.575111,20.0083674 182.077645,19.9513322 182.397655,19.8348513 C182.589186,19.7652057 182.703264,19.5676729 182.667838,19.3671393 L182.557364,18.7391196 C182.517712,18.5157704 182.306401,18.3656701 182.084246,18.3962902" id="Fill-14" fill="#7AAC41"></path>
                        <path d="M193.559114,14.1424487 C193.233701,13.6080912 192.711348,13.1451822 192.007676,12.7657287 C191.337633,12.4048873 190.424417,12.0890769 189.293266,11.8273016 C188.228157,11.5811376 187.412206,11.3241652 186.867644,11.0635918 C186.357901,10.8198284 185.99166,10.5520499 185.779719,10.2680599 C185.581587,10.003283 185.481318,9.61302269 185.481318,9.10928608 C185.481318,8.48066619 185.760508,7.96672288 186.334486,7.53803612 C186.938488,7.08653446 187.785655,6.85778168 188.853776,6.85778168 C189.965715,6.85778168 190.871723,7.12976336 191.547169,7.66592155 C192.202812,8.18526844 192.521023,8.81088672 192.521023,9.57759896 C192.521023,9.80935358 192.70895,9.99787923 192.941302,9.99787923 L193.618554,9.99787923 C193.850913,9.99787923 194.038833,9.80935358 194.038833,9.57759896 C194.038833,8.28193308 193.545904,7.23663478 192.573855,6.47052293 C191.631231,5.72902749 190.379993,5.35197559 188.853776,5.35197559 C187.443428,5.35197559 186.273847,5.7008087 185.378652,6.38706712 C184.448031,7.0997433 183.976112,8.02376033 183.976112,9.13390217 C183.976112,10.2266322 184.352565,11.1026173 185.095858,11.7378421 C185.804932,12.3436464 186.997929,12.8185642 188.742096,13.1902124 C191.301607,13.731174 192.545637,14.6756043 192.545637,16.0787424 C192.545637,16.7319784 192.236432,17.2801443 191.600008,17.7550621 C190.93476,18.2509935 190.043768,18.5025613 188.952239,18.5025613 C187.747831,18.5025613 186.789591,18.2642018 186.105139,17.7946886 C185.451901,17.3455887 185.106071,16.7343799 185.049628,15.9262399 C185.034028,15.7058931 184.850896,15.5353794 184.629948,15.5353794 L183.965307,15.5353794 C183.732948,15.5353794 183.545028,15.7233049 183.545028,15.9556597 C183.545028,17.1588636 184.064369,18.1525276 185.088059,18.9096333 C186.072718,19.6385204 187.372584,20.0083674 188.952239,20.0083674 C190.432824,20.0083674 191.657043,19.6571325 192.588264,18.9648702 C193.559713,18.2437884 194.051443,17.2771427 194.051443,16.0907504 C194.051443,15.3342448 193.885133,14.6792068 193.559114,14.1424487" id="Fill-15" fill="#7AAC41"></path>
                    </g>
                </g>
            </g>
            <g id="g4834" transform="translate(0.313319, 2.710808)">
                <rect id="rect11" fill="#81B441" fill-rule="nonzero" x="817.54887" y="0.0738968456" width="112.45113" height="19.9261032"></rect>
                <path d="M826.696,15 C826.602666,15 826.525667,14.969667 826.465,14.909 C826.404333,14.848333 826.374,14.7713338 826.374,14.678 L826.374,6.404 L823.672,6.404 C823.578666,6.404 823.501667,6.37366697 823.441,6.313 C823.380333,6.25233303 823.35,6.1753338 823.35,6.082 L823.35,5.536 C823.35,5.43333282 823.380333,5.35166697 823.441,5.291 C823.501667,5.23033303 823.578666,5.2 823.672,5.2 L830.392,5.2 C830.494667,5.2 830.574,5.23033303 830.63,5.291 C830.686,5.35166697 830.714,5.43333282 830.714,5.536 L830.714,6.082 C830.714,6.1753338 830.683667,6.25233303 830.623,6.313 C830.562333,6.37366697 830.485334,6.404 830.392,6.404 L827.704,6.404 L827.704,14.678 C827.704,14.7713338 827.671334,14.848333 827.606,14.909 C827.540666,14.969667 827.461334,15 827.368,15 L826.696,15 Z M832.618,15 C832.524666,15 832.45,14.969667 832.394,14.909 C832.338,14.848333 832.31,14.7713338 832.31,14.678 L832.31,5.536 C832.31,5.43333282 832.338,5.35166697 832.394,5.291 C832.45,5.23033303 832.524666,5.2 832.618,5.2 L838.372,5.2 C838.474667,5.2 838.556333,5.23033303 838.617,5.291 C838.677667,5.35166697 838.708,5.43333282 838.708,5.536 L838.708,6.04 C838.708,6.1333338 838.677667,6.20799972 838.617,6.264 C838.556333,6.32000028 838.474667,6.348 838.372,6.348 L833.598,6.348 L833.598,9.47 L838.064,9.47 C838.166667,9.47 838.248333,9.50033303 838.309,9.561 C838.369667,9.62166697 838.4,9.70333282 838.4,9.806 L838.4,10.282 C838.4,10.3753338 838.369667,10.452333 838.309,10.513 C838.248333,10.573667 838.166667,10.604 838.064,10.604 L833.598,10.604 L833.598,13.838 L838.484,13.838 C838.586667,13.838 838.668333,13.868333 838.729,13.929 C838.789667,13.989667 838.82,14.0713328 838.82,14.174 L838.82,14.678 C838.82,14.7713338 838.787334,14.848333 838.722,14.909 C838.656666,14.969667 838.577334,15 838.484,15 L832.618,15 Z M841.102,15 C841.008666,15 840.931667,14.969667 840.871,14.909 C840.810333,14.848333 840.78,14.7713338 840.78,14.678 L840.78,5.536 C840.78,5.43333282 840.808,5.35166697 840.864,5.291 C840.92,5.23033303 840.999333,5.2 841.102,5.2 L841.76,5.2 C841.928001,5.2 842.044666,5.2699993 842.11,5.41 L845.092,11.136 L848.102,5.41 C848.176667,5.2699993 848.288666,5.2 848.438,5.2 L849.096,5.2 C849.198667,5.2 849.278,5.23033303 849.334,5.291 C849.39,5.35166697 849.418,5.43333282 849.418,5.536 L849.418,14.678 C849.418,14.7713338 849.387667,14.848333 849.327,14.909 C849.266333,14.969667 849.189334,15 849.096,15 L848.452,15 C848.358666,15 848.284,14.969667 848.228,14.909 C848.172,14.848333 848.144,14.7713338 848.144,14.678 L848.144,7.72 L845.75,12.354 C845.656666,12.550001 845.507334,12.648 845.302,12.648 L844.882,12.648 C844.685999,12.648 844.536667,12.550001 844.434,12.354 L842.054,7.72 L842.054,14.678 C842.054,14.7713338 842.023667,14.848333 841.963,14.909 C841.902333,14.969667 841.825334,15 841.732,15 L841.102,15 Z M852.19,15 C852.096666,15 852.022,14.969667 851.966,14.909 C851.91,14.848333 851.882,14.7713338 851.882,14.678 L851.882,5.536 C851.882,5.43333282 851.91,5.35166697 851.966,5.291 C852.022,5.23033303 852.096666,5.2 852.19,5.2 L855.732,5.2 C856.786672,5.2 857.614997,5.45433079 858.217,5.963 C858.819003,6.47166921 859.12,7.21132848 859.12,8.182 C859.12,9.15267152 858.819003,9.88999748 858.217,10.394 C857.614997,10.8980025 856.786672,11.15 855.732,11.15 L853.212,11.15 L853.212,14.678 C853.212,14.7713338 853.181667,14.848333 853.121,14.909 C853.060333,14.969667 852.983334,15 852.89,15 L852.19,15 Z M855.662,10.016 C857.07134,10.016 857.776,9.40467278 857.776,8.182 C857.776,7.58466368 857.601002,7.12733492 857.251,6.81 C856.900998,6.49266508 856.371337,6.334 855.662,6.334 L853.212,6.334 L853.212,10.016 L855.662,10.016 Z M861.164,15 C861.070666,15 860.996,14.969667 860.94,14.909 C860.884,14.848333 860.856,14.7713338 860.856,14.678 L860.856,5.522 C860.856,5.4286662 860.884,5.35166697 860.94,5.291 C860.996,5.23033303 861.070666,5.2 861.164,5.2 L861.864,5.2 C861.957334,5.2 862.032,5.23033303 862.088,5.291 C862.144,5.35166697 862.172,5.4286662 862.172,5.522 L862.172,13.824 L866.848,13.824 C866.950667,13.824 867.032333,13.854333 867.093,13.915 C867.153667,13.975667 867.184,14.0526662 867.184,14.146 L867.184,14.678 C867.184,14.7713338 867.151334,14.848333 867.086,14.909 C867.020666,14.969667 866.941334,15 866.848,15 L861.164,15 Z M868.038,15 C867.963333,15 867.898,14.9720003 867.842,14.916 C867.786,14.8599997 867.758,14.794667 867.758,14.72 L867.786,14.566 L871.258,5.508 C871.332667,5.30266564 871.481999,5.2 871.706,5.2 L872.602,5.2 C872.826001,5.2 872.975333,5.30266564 873.05,5.508 L876.522,14.566 L876.55,14.72 C876.55,14.794667 876.519667,14.8599997 876.459,14.916 C876.398333,14.9720003 876.330667,15 876.256,15 L875.598,15 C875.504666,15 875.427667,14.9743336 875.367,14.923 C875.306333,14.8716664 875.266667,14.8180003 875.248,14.762 L874.464,12.746 L869.83,12.746 L869.06,14.762 C868.985333,14.9206675 868.868667,15 868.71,15 L868.038,15 Z M870.236,11.584 L874.072,11.584 L872.154,6.558 L870.236,11.584 Z M879.49,15 C879.396666,15 879.319667,14.969667 879.259,14.909 C879.198333,14.848333 879.168,14.7713338 879.168,14.678 L879.168,6.404 L876.466,6.404 C876.372666,6.404 876.295667,6.37366697 876.235,6.313 C876.174333,6.25233303 876.144,6.1753338 876.144,6.082 L876.144,5.536 C876.144,5.43333282 876.174333,5.35166697 876.235,5.291 C876.295667,5.23033303 876.372666,5.2 876.466,5.2 L883.186,5.2 C883.288667,5.2 883.368,5.23033303 883.424,5.291 C883.48,5.35166697 883.508,5.43333282 883.508,5.536 L883.508,6.082 C883.508,6.1753338 883.477667,6.25233303 883.417,6.313 C883.356333,6.37366697 883.279334,6.404 883.186,6.404 L880.498,6.404 L880.498,14.678 C880.498,14.7713338 880.465334,14.848333 880.4,14.909 C880.334666,14.969667 880.255334,15 880.162,15 L879.49,15 Z M885.412,15 C885.318666,15 885.244,14.969667 885.188,14.909 C885.132,14.848333 885.104,14.7713338 885.104,14.678 L885.104,5.536 C885.104,5.43333282 885.132,5.35166697 885.188,5.291 C885.244,5.23033303 885.318666,5.2 885.412,5.2 L891.166,5.2 C891.268667,5.2 891.350333,5.23033303 891.411,5.291 C891.471667,5.35166697 891.502,5.43333282 891.502,5.536 L891.502,6.04 C891.502,6.1333338 891.471667,6.20799972 891.411,6.264 C891.350333,6.32000028 891.268667,6.348 891.166,6.348 L886.392,6.348 L886.392,9.47 L890.858,9.47 C890.960667,9.47 891.042333,9.50033303 891.103,9.561 C891.163667,9.62166697 891.194,9.70333282 891.194,9.806 L891.194,10.282 C891.194,10.3753338 891.163667,10.452333 891.103,10.513 C891.042333,10.573667 890.960667,10.604 890.858,10.604 L886.392,10.604 L886.392,13.838 L891.278,13.838 C891.380667,13.838 891.462333,13.868333 891.523,13.929 C891.583667,13.989667 891.614,14.0713328 891.614,14.174 L891.614,14.678 C891.614,14.7713338 891.581334,14.848333 891.516,14.909 C891.450666,14.969667 891.371334,15 891.278,15 L885.412,15 Z M897.326,15 C897.232666,15 897.158,14.969667 897.102,14.909 C897.046,14.848333 897.018,14.7713338 897.018,14.678 L897.018,5.536 C897.018,5.43333282 897.046,5.35166697 897.102,5.291 C897.158,5.23033303 897.232666,5.2 897.326,5.2 L897.984,5.2 C898.086667,5.2 898.168333,5.23033303 898.229,5.291 C898.289667,5.35166697 898.32,5.43333282 898.32,5.536 L898.32,9.022 L902.114,5.424 C902.263334,5.27466592 902.445332,5.2 902.66,5.2 L903.36,5.2 C903.434667,5.2 903.5,5.22799972 903.556,5.284 C903.612,5.34000028 903.64,5.40533296 903.64,5.48 C903.64,5.55466704 903.616667,5.6153331 903.57,5.662 L899.202,9.89 L903.864,14.524 C903.910667,14.5800003 903.934,14.645333 903.934,14.72 C903.934,14.794667 903.906,14.8599997 903.85,14.916 C903.794,14.9720003 903.728667,15 903.654,15 L902.926,15 C902.795333,15 902.692667,14.9790002 902.618,14.937 C902.543333,14.8949998 902.464,14.8413337 902.38,14.776 L898.32,10.814 L898.32,14.678 C898.32,14.7713338 898.287334,14.848333 898.222,14.909 C898.156666,14.969667 898.077334,15 897.984,15 L897.326,15 Z M905.698,15 C905.604666,15 905.53,14.969667 905.474,14.909 C905.418,14.848333 905.39,14.7713338 905.39,14.678 L905.39,5.522 C905.39,5.4286662 905.418,5.35166697 905.474,5.291 C905.53,5.23033303 905.604666,5.2 905.698,5.2 L906.398,5.2 C906.500667,5.2 906.58,5.22799972 906.636,5.284 C906.692,5.34000028 906.72,5.41933282 906.72,5.522 L906.72,14.678 C906.72,14.7713338 906.689667,14.848333 906.629,14.909 C906.568333,14.969667 906.491334,15 906.398,15 L905.698,15 Z M911.648,15 C911.554666,15 911.477667,14.969667 911.417,14.909 C911.356333,14.848333 911.326,14.7713338 911.326,14.678 L911.326,6.404 L908.624,6.404 C908.530666,6.404 908.453667,6.37366697 908.393,6.313 C908.332333,6.25233303 908.302,6.1753338 908.302,6.082 L908.302,5.536 C908.302,5.43333282 908.332333,5.35166697 908.393,5.291 C908.453667,5.23033303 908.530666,5.2 908.624,5.2 L915.344,5.2 C915.446667,5.2 915.526,5.23033303 915.582,5.291 C915.638,5.35166697 915.666,5.43333282 915.666,5.536 L915.666,6.082 C915.666,6.1753338 915.635667,6.25233303 915.575,6.313 C915.514333,6.37366697 915.437334,6.404 915.344,6.404 L912.656,6.404 L912.656,14.678 C912.656,14.7713338 912.623334,14.848333 912.558,14.909 C912.492666,14.969667 912.413334,15 912.32,15 L911.648,15 Z M920.328,15.14 C919.562663,15.14 918.897669,15.0186679 918.333,14.776 C917.768331,14.5333321 917.339001,14.2136686 917.045,13.817 C916.750999,13.4203314 916.594667,12.9933356 916.576,12.536 C916.576,12.461333 916.604,12.3960003 916.66,12.34 C916.716,12.2839997 916.786,12.256 916.87,12.256 L917.556,12.256 C917.724001,12.256 917.840666,12.3493324 917.906,12.536 C917.99,12.928002 918.230331,13.2663319 918.627,13.551 C919.023669,13.8356681 919.590663,13.978 920.328,13.978 C921.121337,13.978 921.713998,13.8380014 922.106,13.558 C922.498002,13.2779986 922.694,12.8906691 922.694,12.396 C922.694,12.0786651 922.598334,11.8173344 922.407,11.612 C922.215666,11.4066656 921.931002,11.2270008 921.553,11.073 C921.174998,10.9189992 920.608004,10.7300011 919.852,10.506 C919.13333,10.3006656 918.561669,10.0813345 918.137,9.848 C917.712331,9.6146655 917.392668,9.32766837 917.178,8.987 C916.963332,8.64633163 916.856,8.21466928 916.856,7.692 C916.856,7.18799748 916.991332,6.73766865 917.262,6.341 C917.532668,5.94433135 917.924664,5.63166781 918.438,5.403 C918.951336,5.17433219 919.557996,5.06 920.258,5.06 C920.986004,5.06 921.608997,5.18833205 922.127,5.445 C922.645003,5.70166795 923.039332,6.02366473 923.31,6.411 C923.580668,6.79833527 923.725333,7.18799804 923.744,7.58 C923.744,7.66400042 923.716,7.73399972 923.66,7.79 C923.604,7.84600028 923.534,7.874 923.45,7.874 L922.75,7.874 C922.675333,7.874 922.605334,7.8506669 922.54,7.804 C922.474666,7.7573331 922.428,7.6873338 922.4,7.594 C922.344,7.19266466 922.120002,6.86133464 921.728,6.6 C921.335998,6.33866536 920.846003,6.208 920.258,6.208 C919.62333,6.208 919.119335,6.33166543 918.746,6.579 C918.372665,6.82633457 918.186,7.19266424 918.186,7.678 C918.186,8.0046683 918.272332,8.27066564 918.445,8.476 C918.617668,8.68133436 918.883665,8.86333254 919.243,9.022 C919.602335,9.18066746 920.12733,9.36266564 920.818,9.568 C921.611337,9.79200112 922.234331,10.0159989 922.687,10.24 C923.139669,10.4640011 923.477999,10.741665 923.702,11.073 C923.926001,11.404335 924.038,11.8313307 924.038,12.354 C924.038,13.2313377 923.704337,13.9149976 923.037,14.405 C922.369663,14.8950024 921.466672,15.14 920.328,15.14 Z" id="TEMPLATE-KITS" fill="#FFFFFF"></path>
            </g>
        </g>
    </g>
</svg>