<svg width="253" height="27" viewBox="0 0 253 27" xmlns="http://www.w3.org/2000/svg"><title>Envato elements black</title><g fill="none" fill-rule="evenodd"><path d="M16.45 5.319c-.628-.349-2.427-.133-4.588.536-3.783 2.585-6.975 6.394-7.198 12.51-.04.147-.413-.02-.487-.065-1.021-1.958-1.426-4.019-.573-6.992.159-.265-.36-.591-.455-.498-.186.187-.967 1.019-1.485 1.918C-.905 17.184.775 22.895 5.27 25.394c4.493 2.503 10.168.888 12.67-3.607 2.894-5.188.207-15.52-1.49-16.468" fill="#7AAC41"/><path d="M32.535 7.809c-5.328 0-9.196 3.961-9.196 9.418 0 5.502 3.857 9.346 9.381 9.346 2.79 0 5-.873 6.756-2.67.525-.566.581-1.111.581-1.32 0-.89-.661-1.537-1.573-1.537-.46 0-.844.174-1.285.582-.994.926-2.304 1.874-4.479 1.874-3.023 0-5.482-2.27-5.637-5.185h12.034c1.308 0 1.944-.612 1.944-1.87 0-.37 0-.638-.075-1.166-.648-4.679-3.807-7.472-8.45-7.472zm0 2.922c2.89 0 4.743 1.84 4.857 4.813H27.087c.27-2.75 2.596-4.813 5.448-4.813zM52.553 7.809c-2.42 0-4.818 1.391-5.754 3.324V9.94c0-1.85-1.434-1.944-1.722-1.944-.849 0-1.758.51-1.758 1.944v14.429c0 1.921 1.527 2.018 1.833 2.018.306 0 1.833-.097 1.833-2.018v-7.735c0-3.365 1.907-5.716 4.638-5.716 2.644 0 3.93 1.735 3.93 5.306v8.145c0 1.921 1.527 2.018 1.834 2.018.305 0 1.832-.097 1.832-2.018V15.07c0-3.511-1.751-7.262-6.666-7.262M75.805 7.995c-.847 0-1.46.494-1.827 1.466l-5.015 12.612-4.977-12.612c-.39-.986-1-1.466-1.865-1.466-1.01 0-1.833.789-1.833 1.758 0 .24.027.551.23 1.037l5.764 13.61c.687 1.642 1.816 1.986 2.643 1.986.827 0 1.957-.344 2.646-1.985l5.8-13.686c.2-.48.23-.832.23-.999 0-.98-.773-1.721-1.796-1.721M86.465 7.809c-2.345 0-4.529.653-6.149 1.837-.549.38-.816.852-.816 1.447 0 .818.625 1.46 1.424 1.46.346 0 .733-.138 1.088-.387 1.392-.928 2.7-1.36 4.117-1.36 2.71 0 4.266 1.377 4.266 3.781v.399c-6.084.006-12.272.741-12.272 6.034 0 3.81 3.256 5.515 6.482 5.515 2.57 0 4.621-1.018 5.938-2.945v.926c0 1.38.927 1.87 1.723 1.87.167 0 1.646-.052 1.646-1.87v-9.705c0-4.385-2.785-7.002-7.447-7.002zm3.16 9.876h.77v.844c0 3.089-1.966 5.084-5.01 5.084-.825 0-3.52-.192-3.52-2.667 0-2.923 4.428-3.261 7.76-3.261zM103.458 11.325c1.604 0 1.685-1.247 1.685-1.497 0-.743-.443-1.536-1.685-1.536h-3.298V4.956c0-1.49-.967-2.019-1.795-2.019-.307 0-1.833.097-1.833 2.02v15.841c0 3.656 1.803 5.588 5.216 5.588.883 0 1.743-.156 2.305-.418.646-.322 1.015-.85 1.015-1.452 0-.847-.614-1.46-1.462-1.46-.163 0-.396.039-.652.113-.314.078-.527.11-.76.11-1.388 0-2.034-.907-2.034-2.854v-9.1h3.298M115.58 7.809c-5.544 0-9.567 3.93-9.567 9.343 0 2.637.974 5.04 2.743 6.765 1.756 1.713 4.178 2.656 6.824 2.656 5.475 0 9.604-4.05 9.604-9.42 0-5.414-4.04-9.344-9.604-9.344zm0 15.656c-3.803 0-5.79-3.176-5.79-6.313 0-4.31 3-6.273 5.79-6.273 2.788 0 5.79 1.964 5.79 6.273 0 4.337-3.002 6.313-5.79 6.313z" fill="#131412"/><path d="M136.306 7.4a7.048 7.048 0 0 0-3.973 1.214c-1.198.8-2.152 1.925-2.833 3.344-.673 1.403-1.015 2.965-1.015 4.642v.721c0 1.682.354 3.236 1.052 4.62.703 1.396 1.693 2.511 2.94 3.314a7.537 7.537 0 0 0 4.15 1.218c2.72 0 4.807-1.023 6.202-3.04a.548.548 0 0 0-.133-.758l-.61-.432a.547.547 0 0 0-.747.109c-.574.735-1.239 1.284-1.974 1.633-.739.35-1.66.528-2.738.528a5.552 5.552 0 0 1-3.089-.934c-.955-.625-1.715-1.503-2.261-2.608-.553-1.118-.833-2.352-.833-3.668v-.396h12.448a.548.548 0 0 0 .547-.548v-.913c0-2.37-.667-4.32-1.982-5.796-1.33-1.492-3.064-2.25-5.15-2.25zm-5.735 7.548c.26-1.547.877-2.85 1.84-3.879 1.077-1.15 2.35-1.71 3.895-1.71.968 0 1.852.255 2.629.755.782.504 1.406 1.222 1.856 2.137.41.832.637 1.737.68 2.697h-10.9zM147.134.66h-.865a.547.547 0 0 0-.547.546v24.611c0 .302.245.547.547.547h.865a.547.547 0 0 0 .547-.547V1.206a.547.547 0 0 0-.547-.547M157.765 7.4a7.048 7.048 0 0 0-3.973 1.214c-1.199.8-2.153 1.925-2.833 3.344-.674 1.403-1.016 2.965-1.016 4.642v.721c0 1.682.354 3.236 1.053 4.62.703 1.397 1.693 2.512 2.939 3.314a7.542 7.542 0 0 0 4.15 1.218c2.72 0 4.807-1.023 6.202-3.04a.547.547 0 0 0-.133-.758l-.61-.432a.547.547 0 0 0-.747.109c-.573.734-1.238 1.284-1.974 1.633-.74.35-1.66.528-2.738.528a5.555 5.555 0 0 1-3.09-.934c-.954-.625-1.715-1.503-2.26-2.608-.553-1.117-.832-2.351-.832-3.668v-.396h12.447a.548.548 0 0 0 .547-.548v-.913c0-2.37-.667-4.32-1.981-5.796-1.33-1.492-3.064-2.25-5.151-2.25zm-5.736 7.548c.26-1.547.878-2.85 1.841-3.879 1.077-1.15 2.35-1.71 3.895-1.71.98 0 1.839.248 2.627.755.782.504 1.407 1.222 1.857 2.137.408.832.637 1.738.681 2.697h-10.9zM186.634 7.561c-1.531 0-2.935.404-4.174 1.2a6.996 6.996 0 0 0-2.058 2.01c-.375-.928-.928-1.648-1.653-2.151-1.013-.703-2.318-1.059-3.876-1.059a6.7 6.7 0 0 0-3.936 1.254 7.243 7.243 0 0 0-1.654 1.628V8.428a.547.547 0 0 0-.547-.547h-.88a.547.547 0 0 0-.548.547v17.337c0 .302.245.547.547.547h.88a.547.547 0 0 0 .548-.547V14.869a7.91 7.91 0 0 1 1.323-3.063c1.108-1.538 2.488-2.286 4.219-2.286 1.474 0 2.547.366 3.187 1.089.66.742.998 1.927 1.008 3.518v11.638c0 .302.245.547.547.547h.866a.548.548 0 0 0 .547-.547l-.002-11.486c.056-.776.408-1.606 1.046-2.465 1.132-1.514 2.626-2.264 4.568-2.294 1.489-.026 2.512.354 3.171 1.141.675.807 1.018 2.108 1.018 3.867v11.237c0 .302.245.547.547.547h.865a.547.547 0 0 0 .547-.547V14.45c-.011-2.24-.522-3.96-1.519-5.114-1.018-1.179-2.561-1.776-4.587-1.776M202.937 7.4a7.048 7.048 0 0 0-3.973 1.214c-1.199.8-2.153 1.925-2.833 3.344-.674 1.403-1.016 2.965-1.016 4.642v.721c0 1.682.354 3.236 1.052 4.62.704 1.396 1.693 2.511 2.94 3.315a7.55 7.55 0 0 0 4.15 1.217c2.72 0 4.807-1.023 6.203-3.04a.548.548 0 0 0-.134-.758l-.61-.432a.547.547 0 0 0-.747.109c-.574.735-1.238 1.284-1.974 1.634-.739.35-1.66.527-2.738.527a5.55 5.55 0 0 1-3.089-.934c-.953-.625-1.714-1.502-2.261-2.608-.553-1.118-.832-2.353-.832-3.668v-.396h12.447a.548.548 0 0 0 .547-.548v-.913c0-2.37-.667-4.32-1.981-5.796-1.33-1.492-3.064-2.25-5.151-2.25zm-5.736 7.548c.26-1.547.877-2.85 1.84-3.879 1.077-1.15 2.351-1.71 3.896-1.71.98 0 1.84.248 2.628.755.781.504 1.406 1.222 1.856 2.137.41.832.638 1.738.68 2.697h-10.9zM220.08 7.53a6.74 6.74 0 0 0-3.969 1.271 7.48 7.48 0 0 0-1.636 1.586v-1.99a.547.547 0 0 0-.547-.546h-.866a.547.547 0 0 0-.547.547v17.336c0 .303.246.548.547.548h.866a.548.548 0 0 0 .547-.548v-11.03c.362-1.536 1.052-2.806 2.052-3.776.998-.967 2.145-1.438 3.505-1.438 1.447 0 2.503.384 3.139 1.14.66.788 1 2.057 1.01 3.771v11.333c0 .303.244.548.546.548h.865a.548.548 0 0 0 .548-.548V14.42c-.012-2.25-.517-3.971-1.503-5.12-1.007-1.174-2.54-1.77-4.556-1.77M236.947 24.375c-1.746.25-2.73.181-3.197-.504-.335-.495-.506-1.308-.506-2.42V9.681h3.395a.547.547 0 0 0 .547-.548v-.865a.547.547 0 0 0-.547-.547h-3.395V3.59a.547.547 0 0 0-.547-.548h-.881a.547.547 0 0 0-.547.548V7.72h-2.657a.547.547 0 0 0-.548.547v.865c0 .303.245.547.548.547h2.657v11.887c.013 1.647.322 2.838.949 3.644.65.837 1.707 1.262 3.139 1.262.927 0 1.581-.075 1.998-.226a.547.547 0 0 0 .351-.609l-.144-.817a.55.55 0 0 0-.615-.446M251.88 18.84c-.424-.696-1.104-1.298-2.02-1.792-.872-.47-2.06-.88-3.532-1.221-1.386-.32-2.448-.655-3.157-.994-.663-.317-1.14-.666-1.415-1.035-.258-.345-.389-.853-.389-1.508 0-.818.364-1.487 1.11-2.045.787-.588 1.89-.885 3.279-.885 1.447 0 2.626.354 3.505 1.051.853.676 1.267 1.49 1.267 2.488 0 .302.245.547.547.547h.881a.547.547 0 0 0 .547-.547c0-1.686-.641-3.046-1.906-4.043-1.227-.965-2.855-1.456-4.841-1.456-1.835 0-3.357.454-4.522 1.347-1.211.928-1.825 2.13-1.825 3.575 0 1.422.49 2.562 1.457 3.388.923.788 2.475 1.407 4.745 1.89 3.33.704 4.95 1.933 4.95 3.759 0 .85-.403 1.563-1.231 2.181-.866.646-2.025.973-3.446.973-1.567 0-2.814-.31-3.705-.921-.85-.584-1.3-1.38-1.373-2.431a.547.547 0 0 0-.546-.51h-.865a.547.547 0 0 0-.547.548c0 1.566.676 2.859 2.008 3.844 1.281.948 2.973 1.43 5.028 1.43 1.927 0 3.52-.457 4.732-1.358 1.264-.939 1.904-2.197 1.904-3.74 0-.985-.217-1.837-.64-2.536" fill="#7AAC41"/></g></svg>