<svg width="30" height="29" viewBox="0 0 30 29" fill="none" xmlns="http://www.w3.org/2000/svg"><path fill-rule="evenodd" clip-rule="evenodd" d="M17.918 5.772c2.55 2.583 2.877 6.56.982 9.515.164.138.3.29.49.428.273.221.642.497 1.105.815.464.331.764.539.9.649.573.428.996.787 1.282 1.077.436.442.818.898 1.146 1.381.34.483.6.953.804 1.436.191.484.287.94.246 1.381-.028.442-.191.815-.491 1.119-.3.304-.669.47-1.105.497a2.867 2.867 0 0 1-1.35-.262 6.457 6.457 0 0 1-1.418-.815 9.673 9.673 0 0 1-1.364-1.16c-.286-.29-.64-.718-1.05-1.284-.136-.18-.34-.484-.64-.912-.3-.442-.546-.787-.764-1.077a7.958 7.958 0 0 0-.6-.69 7.434 7.434 0 0 1-8.782-1.354c-2.918-2.969-2.918-7.788 0-10.744a7.432 7.432 0 0 1 10.61 0zm-1.923 8.783a4.895 4.895 0 0 0 0-6.835 4.723 4.723 0 0 0-6.75 0 4.87 4.87 0 0 0 0 6.835 4.723 4.723 0 0 0 6.75 0z" fill="#888"/><mask id="a" maskUnits="userSpaceOnUse" x="5" y="3" width="20" height="22"><path fill-rule="evenodd" clip-rule="evenodd" d="M17.918 5.772c2.55 2.583 2.877 6.56.982 9.515.164.138.3.29.49.428.273.221.642.497 1.105.815.464.331.764.539.9.649.573.428.996.787 1.282 1.077.436.442.818.898 1.146 1.381.34.483.6.953.804 1.436.191.484.287.94.246 1.381-.028.442-.191.815-.491 1.119-.3.304-.669.47-1.105.497a2.867 2.867 0 0 1-1.35-.262 6.457 6.457 0 0 1-1.418-.815 9.673 9.673 0 0 1-1.364-1.16c-.286-.29-.64-.718-1.05-1.284-.136-.18-.34-.484-.64-.912-.3-.442-.546-.787-.764-1.077a7.958 7.958 0 0 0-.6-.69 7.434 7.434 0 0 1-8.782-1.354c-2.918-2.969-2.918-7.788 0-10.744a7.432 7.432 0 0 1 10.61 0zm-1.923 8.783a4.895 4.895 0 0 0 0-6.835 4.723 4.723 0 0 0-6.75 0 4.87 4.87 0 0 0 0 6.835 4.723 4.723 0 0 0 6.75 0z" fill="#fff"/></mask><path fill="#7BAB48" d="M0 0h30v29H0z" mask="url(#a)"/></svg>