<svg width="318" height="24" viewBox="0 0 318 24" xmlns="http://www.w3.org/2000/svg"><title>envato-elements</title><g fill="none" fill-rule="evenodd"><g fill-rule="nonzero"><path d="M15.29 3.967c-.482-.267-1.865-.102-3.525.412-2.907 1.987-5.36 4.914-5.531 9.614-.031.113-.318-.015-.375-.05-.785-1.505-1.096-3.089-.44-5.374.122-.203-.277-.454-.35-.382-.143.144-.743.783-1.14 1.474-1.975 3.425-.684 7.813 2.77 9.733a7.158 7.158 0 0 0 9.737-2.771c2.224-3.987.158-11.927-1.146-12.656" fill="#7AAC41"/><path d="M27.651 5.88c-4.094 0-7.066 3.045-7.066 7.239 0 4.228 2.964 7.181 7.209 7.181 2.144 0 3.842-.67 5.191-2.051.404-.435.447-.854.447-1.015 0-.684-.509-1.18-1.21-1.18-.352 0-.648.133-.986.446-.765.712-1.771 1.44-3.442 1.44-2.324 0-4.213-1.744-4.332-3.984h9.247c1.006 0 1.494-.47 1.494-1.437 0-.285 0-.49-.057-.896-.498-3.596-2.926-5.742-6.495-5.742zm0 2.246c2.22 0 3.645 1.415 3.733 3.699h-7.92c.208-2.114 1.995-3.699 4.187-3.699zM43.034 5.88c-1.86 0-3.702 1.07-4.421 2.555v-.917c0-1.422-1.103-1.494-1.323-1.494-.653 0-1.351.392-1.351 1.494v11.088c0 1.476 1.173 1.55 1.408 1.55.235 0 1.409-.074 1.409-1.55v-5.944c0-2.586 1.465-4.393 3.564-4.393 2.031 0 3.02 1.334 3.02 4.078v6.259c0 1.476 1.174 1.55 1.409 1.55.235 0 1.408-.074 1.408-1.55V11.46c0-2.698-1.346-5.58-5.123-5.58M60.903 6.024c-.651 0-1.123.38-1.405 1.127l-3.854 9.691-3.824-9.691c-.3-.759-.768-1.127-1.433-1.127-.777 0-1.409.606-1.409 1.351 0 .184.021.423.177.797l4.43 10.458c.527 1.262 1.395 1.527 2.03 1.527.636 0 1.505-.265 2.034-1.526l4.458-10.517c.152-.368.175-.64.175-.768 0-.753-.593-1.322-1.38-1.322M69.094 5.88c-1.802 0-3.48.503-4.725 1.413-.422.291-.627.654-.627 1.111 0 .629.48 1.122 1.095 1.122.265 0 .563-.106.835-.297 1.07-.713 2.076-1.046 3.164-1.046 2.083 0 3.279 1.06 3.279 2.907v.306c-4.676.005-9.43.57-9.43 4.637 0 2.928 2.501 4.238 4.98 4.238 1.975 0 3.551-.782 4.563-2.263v.712c0 1.06.713 1.437 1.324 1.437.128 0 1.265-.04 1.265-1.437v-7.458c0-3.37-2.14-5.381-5.723-5.381zm2.428 7.59h.593v.649c0 2.373-1.512 3.907-3.85 3.907-.635 0-2.706-.148-2.706-2.05 0-2.246 3.403-2.506 5.963-2.506zM82.153 8.583c1.232 0 1.295-.959 1.295-1.15 0-.571-.34-1.18-1.295-1.18h-2.535V3.688c0-1.145-.743-1.552-1.38-1.552-.235 0-1.408.075-1.408 1.552v12.173c0 2.81 1.386 4.295 4.008 4.295.679 0 1.34-.12 1.772-.322.496-.247.78-.654.78-1.115 0-.651-.472-1.123-1.123-1.123-.126 0-.305.03-.502.088-.24.06-.404.084-.583.084-1.067 0-1.564-.697-1.564-2.193V8.583h2.535M91.468 5.88c-4.26 0-7.352 3.02-7.352 7.181 0 2.026.749 3.872 2.108 5.198 1.35 1.316 3.211 2.041 5.244 2.041 4.208 0 7.38-3.112 7.38-7.239 0-4.16-3.104-7.18-7.38-7.18zm0 12.032c-2.922 0-4.45-2.44-4.45-4.851 0-3.312 2.307-4.82 4.45-4.82 2.143 0 4.45 1.508 4.45 4.82 0 3.333-2.307 4.85-4.45 4.85z" fill="#131412"/><path d="M107.395 5.567a5.416 5.416 0 0 0-3.053.933c-.92.614-1.654 1.479-2.177 2.569-.517 1.078-.78 2.278-.78 3.567v.555c0 1.292.272 2.486.809 3.55.54 1.073 1.3 1.93 2.26 2.547.962.62 2.035.935 3.188.935 2.09 0 3.694-.786 4.766-2.336a.421.421 0 0 0-.103-.582l-.468-.332a.42.42 0 0 0-.574.084c-.441.565-.952.987-1.517 1.254-.568.27-1.276.406-2.104.406a4.267 4.267 0 0 1-2.374-.717c-.734-.481-1.318-1.155-1.737-2.004a6.298 6.298 0 0 1-.64-2.82v-.304h9.565a.42.42 0 0 0 .42-.42v-.702c0-1.822-.512-3.32-1.522-4.454-1.023-1.147-2.355-1.73-3.959-1.73zm-4.407 5.8c.2-1.19.674-2.19 1.414-2.98.828-.885 1.806-1.314 2.993-1.314.744 0 1.423.195 2.02.579.601.387 1.08.94 1.427 1.642.314.64.49 1.335.523 2.073h-8.377zM115.716.386h-.665a.42.42 0 0 0-.42.42V19.72c0 .233.188.42.42.42h.665a.42.42 0 0 0 .42-.42V.807a.42.42 0 0 0-.42-.42M123.885 5.567a5.416 5.416 0 0 0-3.053.933c-.92.614-1.654 1.479-2.177 2.569-.517 1.078-.78 2.278-.78 3.567v.555c0 1.292.272 2.486.809 3.55.54 1.073 1.3 1.93 2.258 2.547.964.62 2.037.935 3.19.935 2.09 0 3.694-.786 4.766-2.336a.42.42 0 0 0-.103-.582l-.468-.332a.42.42 0 0 0-.574.084c-.441.564-.952.986-1.518 1.254-.568.27-1.275.406-2.103.406a4.269 4.269 0 0 1-2.374-.717c-.734-.481-1.319-1.155-1.738-2.004a6.302 6.302 0 0 1-.64-2.82v-.304h9.566a.42.42 0 0 0 .42-.42v-.702c0-1.822-.512-3.32-1.522-4.454-1.023-1.147-2.355-1.73-3.959-1.73zm-4.407 5.8c.2-1.19.674-2.19 1.414-2.98.828-.885 1.806-1.314 2.993-1.314.754 0 1.414.19 2.02.579.6.387 1.08.94 1.426 1.642.314.64.49 1.336.524 2.073h-8.377zM146.07 5.69c-1.177 0-2.255.31-3.207.923a5.376 5.376 0 0 0-1.582 1.544c-.288-.713-.713-1.266-1.27-1.653-.779-.54-1.781-.814-2.979-.814-1.101 0-2.119.325-3.024.964-.483.34-.908.758-1.271 1.25V6.358a.42.42 0 0 0-.42-.42h-.677a.42.42 0 0 0-.42.42v13.322c0 .233.187.421.42.421h.676a.42.42 0 0 0 .42-.42v-8.373a6.08 6.08 0 0 1 1.018-2.355c.851-1.182 1.911-1.756 3.241-1.756 1.133 0 1.957.281 2.45.837.507.57.767 1.48.774 2.703v8.943c0 .233.188.421.42.421h.666a.42.42 0 0 0 .42-.42l-.001-8.827c.043-.597.313-1.234.804-1.895.869-1.163 2.017-1.74 3.51-1.762 1.144-.02 1.93.272 2.436.877.52.62.783 1.62.783 2.971v8.635c0 .233.188.421.42.421h.665a.42.42 0 0 0 .42-.42v-8.695c-.008-1.721-.401-3.042-1.167-3.93-.782-.906-1.968-1.365-3.525-1.365M158.598 5.567a5.416 5.416 0 0 0-3.053.933c-.92.614-1.654 1.479-2.177 2.569-.517 1.078-.78 2.278-.78 3.567v.555c0 1.292.272 2.486.808 3.55.54 1.073 1.3 1.93 2.26 2.547.964.62 2.036.935 3.188.935 2.09 0 3.695-.786 4.767-2.336a.421.421 0 0 0-.103-.582l-.468-.332a.42.42 0 0 0-.575.084c-.44.565-.951.987-1.517 1.255-.567.27-1.275.405-2.104.405a4.265 4.265 0 0 1-2.373-.717c-.733-.48-1.317-1.155-1.738-2.004a6.307 6.307 0 0 1-.64-2.82v-.304h9.566a.42.42 0 0 0 .42-.42v-.702c0-1.822-.512-3.32-1.522-4.454-1.023-1.147-2.355-1.73-3.959-1.73zm-4.407 5.8c.199-1.19.674-2.19 1.414-2.98.828-.885 1.806-1.314 2.993-1.314.754 0 1.414.19 2.02.579.6.387 1.08.94 1.426 1.642.315.64.49 1.336.523 2.073h-8.376zM171.773 5.667a5.18 5.18 0 0 0-3.05.976c-.48.34-.9.747-1.258 1.22v-1.53a.42.42 0 0 0-.42-.42h-.666a.42.42 0 0 0-.42.42v13.323c0 .232.189.42.42.42h.666a.42.42 0 0 0 .42-.42V11.18c.279-1.181.809-2.157 1.577-2.902.767-.744 1.648-1.105 2.694-1.105 1.112 0 1.923.295 2.411.876.507.605.768 1.58.776 2.898v8.709c0 .232.188.42.42.42h.665c.232 0 .42-.188.42-.42V10.96c-.008-1.728-.397-3.051-1.154-3.935-.774-.901-1.952-1.359-3.501-1.359M184.734 18.611c-1.342.192-2.098.14-2.457-.387-.258-.38-.389-1.005-.389-1.86V7.32h2.61a.42.42 0 0 0 .42-.42v-.665a.42.42 0 0 0-.42-.42h-2.61V2.639a.42.42 0 0 0-.42-.421h-.677a.42.42 0 0 0-.42.42v3.176h-2.042a.42.42 0 0 0-.421.42v.664c0 .233.188.42.42.42h2.043v9.135c.01 1.266.247 2.181.728 2.8.5.644 1.312.97 2.413.97.713 0 1.215-.057 1.535-.173a.42.42 0 0 0 .27-.468l-.11-.628a.422.422 0 0 0-.473-.343M196.209 14.357c-.326-.534-.848-.997-1.552-1.376-.67-.361-1.583-.677-2.714-.939-1.065-.246-1.881-.503-2.426-.764-.51-.243-.876-.511-1.088-.795-.198-.265-.298-.655-.298-1.159 0-.629.279-1.142.853-1.571.604-.452 1.451-.68 2.52-.68 1.111 0 2.017.272 2.693.808.655.519.973 1.145.973 1.911 0 .232.188.42.42.42h.678a.42.42 0 0 0 .42-.42c0-1.295-.493-2.34-1.465-3.107-.942-.741-2.194-1.118-3.72-1.118-1.41 0-2.58.349-3.475 1.035-.93.713-1.402 1.637-1.402 2.747 0 1.092.376 1.968 1.12 2.604.708.605 1.901 1.08 3.645 1.452 2.56.541 3.804 1.485 3.804 2.889 0 .653-.31 1.2-.946 1.676-.665.496-1.556.747-2.647.747-1.205 0-2.163-.238-2.847-.708-.654-.449-1-1.06-1.056-1.868a.42.42 0 0 0-.42-.39h-.664a.42.42 0 0 0-.42.42c0 1.203.519 2.196 1.542 2.953.985.73 2.285 1.1 3.865 1.1 1.48 0 2.704-.352 3.636-1.044.971-.721 1.463-1.688 1.463-2.874 0-.757-.166-1.412-.492-1.949" fill="#7AAC41"/></g><path fill="#81B441" fill-rule="nonzero" d="M203.862 1.785h112.451V21.71h-112.45z"/><path d="M213.01 16.71a.313.313 0 0 1-.323-.321V8.115h-2.702a.313.313 0 0 1-.322-.322v-.546c0-.103.03-.185.091-.245a.313.313 0 0 1 .231-.091h6.72c.103 0 .182.03.238.09.056.061.084.143.084.246v.546a.313.313 0 0 1-.322.322h-2.688v8.274c0 .093-.032.17-.098.23a.337.337 0 0 1-.238.092h-.672zm5.921 0a.29.29 0 0 1-.224-.09.327.327 0 0 1-.084-.231V7.247c0-.103.028-.185.084-.245a.29.29 0 0 1 .224-.091h5.754c.103 0 .185.03.245.09.061.061.091.143.091.246v.504a.29.29 0 0 1-.09.224.347.347 0 0 1-.246.084h-4.774v3.122h4.466c.103 0 .185.03.245.09.061.061.091.143.091.246v.476c0 .093-.03.17-.09.23a.331.331 0 0 1-.246.092h-4.466v3.234h4.886c.103 0 .185.03.245.09.061.061.091.143.091.246v.504c0 .093-.032.17-.098.23a.337.337 0 0 1-.238.092h-5.866zm8.484 0a.313.313 0 0 1-.322-.321V7.247c0-.103.028-.185.084-.245a.308.308 0 0 1 .238-.091h.658c.168 0 .285.07.35.21l2.982 5.726 3.01-5.726a.36.36 0 0 1 .336-.21h.658c.103 0 .182.03.238.09.056.061.084.143.084.246v9.142a.313.313 0 0 1-.322.322h-.644a.29.29 0 0 1-.224-.091.327.327 0 0 1-.084-.231V9.43l-2.394 4.634c-.093.196-.242.294-.448.294h-.42c-.196 0-.345-.098-.448-.294l-2.38-4.634v6.958a.313.313 0 0 1-.322.322h-.63zm11.088 0a.29.29 0 0 1-.224-.09.327.327 0 0 1-.084-.231V7.247c0-.103.028-.185.084-.245a.29.29 0 0 1 .224-.091h3.542c1.055 0 1.883.254 2.485.763.602.508.903 1.248.903 2.219 0 .97-.3 1.708-.903 2.212-.602.504-1.43.756-2.485.756h-2.52v3.528a.313.313 0 0 1-.322.322h-.7zm3.472-4.983c1.41 0 2.114-.612 2.114-1.834 0-.598-.175-1.055-.525-1.372-.35-.318-.88-.476-1.589-.476h-2.45v3.682h2.45zm5.502 4.984a.29.29 0 0 1-.224-.091.327.327 0 0 1-.084-.231V7.233c0-.094.028-.17.084-.231a.29.29 0 0 1 .224-.091h.7a.29.29 0 0 1 .224.09c.056.061.084.138.084.232v8.302h4.676c.103 0 .185.03.245.09.061.061.091.138.091.232v.532c0 .093-.032.17-.098.23a.337.337 0 0 1-.238.092h-5.684zm6.874 0a.269.269 0 0 1-.196-.084.269.269 0 0 1-.084-.196l.028-.154 3.472-9.058c.075-.206.224-.308.448-.308h.896c.224 0 .374.102.448.308l3.472 9.058.028.154a.26.26 0 0 1-.09.196.292.292 0 0 1-.204.084h-.658a.37.37 0 0 1-.35-.238l-.784-2.016h-4.634l-.77 2.016c-.074.158-.191.238-.35.238h-.672zm2.198-3.416h3.836l-1.918-5.026-1.918 5.026zm9.254 3.416a.313.313 0 0 1-.322-.322V8.115h-2.702a.313.313 0 0 1-.322-.322v-.546c0-.103.03-.185.091-.245a.313.313 0 0 1 .231-.091h6.72c.103 0 .182.03.238.09.056.061.084.143.084.246v.546a.313.313 0 0 1-.322.322h-2.688v8.274c0 .093-.032.17-.098.23a.337.337 0 0 1-.238.092h-.672zm5.922 0a.29.29 0 0 1-.224-.091.327.327 0 0 1-.084-.231V7.247c0-.103.028-.185.084-.245a.29.29 0 0 1 .224-.091h5.754c.103 0 .185.03.245.09.061.061.091.143.091.246v.504a.29.29 0 0 1-.09.224.347.347 0 0 1-.246.084h-4.774v3.122h4.466c.103 0 .185.03.245.09.061.061.091.143.091.246v.476c0 .093-.03.17-.09.23a.331.331 0 0 1-.246.092h-4.466v3.234h4.886c.103 0 .185.03.245.09.061.061.091.143.091.246v.504c0 .093-.032.17-.098.23a.337.337 0 0 1-.238.092h-5.866zm11.914 0a.29.29 0 0 1-.224-.091.327.327 0 0 1-.084-.231V7.247c0-.103.028-.185.084-.245a.29.29 0 0 1 .224-.091h.658c.103 0 .185.03.245.09.061.061.091.143.091.246v3.486l3.794-3.598a.743.743 0 0 1 .546-.224h.7c.075 0 .14.028.196.084a.269.269 0 0 1 .084.196.246.246 0 0 1-.07.182l-4.368 4.228 4.662 4.634c.047.056.07.121.07.196 0 .074-.028.14-.084.196a.269.269 0 0 1-.196.084h-.728a.631.631 0 0 1-.308-.063 1.95 1.95 0 0 1-.238-.161l-4.06-3.962v3.864c0 .093-.032.17-.098.23a.337.337 0 0 1-.238.092h-.658zm8.372 0a.29.29 0 0 1-.224-.091.327.327 0 0 1-.084-.231V7.233c0-.094.028-.17.084-.231a.29.29 0 0 1 .224-.091h.7c.103 0 .182.028.238.084.056.056.084.135.084.238v9.156a.313.313 0 0 1-.322.322h-.7zm5.95 0a.313.313 0 0 1-.322-.322V8.115h-2.702a.313.313 0 0 1-.322-.322v-.546c0-.103.03-.185.091-.245a.313.313 0 0 1 .231-.091h6.72c.103 0 .182.03.238.09.056.061.084.143.084.246v.546a.313.313 0 0 1-.322.322h-2.688v8.274c0 .093-.032.17-.098.23a.337.337 0 0 1-.238.092h-.672zm8.68.14c-.765 0-1.43-.122-1.995-.364-.564-.243-.994-.563-1.288-.96a2.272 2.272 0 0 1-.469-1.28c0-.075.028-.14.084-.196a.285.285 0 0 1 .21-.084h.686c.168 0 .285.093.35.28.084.392.325.73.721 1.015.397.284.964.427 1.701.427.794 0 1.386-.14 1.778-.42.392-.28.588-.668.588-1.162 0-.318-.095-.579-.287-.784-.191-.206-.476-.385-.854-.54-.378-.153-.945-.342-1.7-.566-.72-.206-1.291-.425-1.716-.658-.424-.234-.744-.52-.959-.861-.214-.34-.322-.773-.322-1.295 0-.504.136-.955.406-1.351.271-.397.663-.71 1.176-.938.514-.229 1.12-.343 1.82-.343.728 0 1.351.128 1.87.385.517.256.912.578 1.182.966.271.387.416.777.434 1.169a.285.285 0 0 1-.294.294h-.7a.355.355 0 0 1-.21-.07.382.382 0 0 1-.14-.21c-.056-.402-.28-.733-.672-.994-.392-.262-.882-.392-1.47-.392-.634 0-1.138.123-1.512.37-.373.248-.56.614-.56 1.1 0 .326.087.592.26.798.172.205.438.387.797.546.36.158.885.34 1.575.546.794.224 1.417.448 1.87.672.452.224.79.501 1.014.833.224.331.336.758.336 1.28 0 .878-.333 1.562-1 2.052-.668.49-1.571.735-2.71.735z" fill="#FFF"/></g></svg>