<svg width="20" height="20" viewBox="0 0 20 20" fill="none" xmlns="http://www.w3.org/2000/svg"><path fill-rule="evenodd" clip-rule="evenodd" d="M1 18V2c0-.55.45-1 1-1h16c.55 0 1 .45 1 1v16c0 .55-.45 1-1 1H2c-.55 0-1-.45-1-1zm10-7H3v6h8v-6zM6 3H3v6h3V3zm11 8h-4v6h4v-6zm0-8H8v6h9V3z" fill="#888"/><mask id="a" maskUnits="userSpaceOnUse" x="1" y="1" width="18" height="18"><path fill-rule="evenodd" clip-rule="evenodd" d="M1 18V2c0-.55.45-1 1-1h16c.55 0 1 .45 1 1v16c0 .55-.45 1-1 1H2c-.55 0-1-.45-1-1zm10-7H3v6h8v-6zM6 3H3v6h3V3zm11 8h-4v6h4v-6zm0-8H8v6h9V3z" fill="#fff"/></mask><path transform="rotate(-90 -.241 20.816)" fill="#0878B0" d="M-.241 20.816h21.846v20.765H-.241z" mask="url(#a)"/></svg>