<svg xmlns="http://www.w3.org/2000/svg" viewBox="0 0 400 400"><style>.st0{fill:#e0edd2}.st1{fill:#e1ecd3}.st2{fill:#fff}.st3,.st4,.st5,.st6,.st7{fill:none;stroke-linecap:round;stroke-miterlimit:10}.st3{stroke-linejoin:round;stroke:#80b341;stroke-width:3}.st4,.st5,.st6,.st7{stroke:#e1ecd3;stroke-width:4}.st5,.st6,.st7{stroke:#e0edd2}.st6,.st7{stroke:#e1ecd3;stroke-width:5;stroke-linejoin:round}.st7{fill:#fff;stroke:#80b341;stroke-width:4}.st8{opacity:.22}.st9{fill:#81b441}.st10,.st11{fill:none;stroke:#80b341;stroke-width:3.0227;stroke-linecap:round;stroke-linejoin:round;stroke-miterlimit:10}.st11{stroke-width:4}#clouds,#mainCircle{stroke-dasharray:500;animation:mainCircle-drawIn 1.4s forwards;animation-delay:0s;stroke-dashoffset:500}@keyframes mainCircle-drawIn{to{stroke-dasharray:1000;stroke-dashoffset:500}}#clouds{animation:clouds-drawIn 2s forwards;animation-delay:.8s;opacity:0}@keyframes clouds-drawIn{to{stroke-dasharray:930;stroke-dashoffset:500;opacity:1}}#planetOutline,#planetShadow{animation:planetOutline-dropIn .8s forwards;animation-delay:.8s;opacity:0;transform:translateY(-20px)}@keyframes planetOutline-dropIn{to{transform:translateY(0);opacity:1}}#planetShadow{animation:planetShadow-moveIn .8s forwards;animation-delay:1s}@keyframes planetShadow-moveIn{to{transform:translateY(2px);opacity:1}}#rocketTrail{stroke-dasharray:150;animation:rocketTrail-moveIn .8s forwards;animation-delay:1.2s;opacity:0;stroke-dashoffset:690;transform:translateY(0)}@keyframes rocketTrail-moveIn{to{opacity:.6;transform:translateY(0);stroke-dasharray:150;stroke-dashoffset:690}}#rocketMain{animation:rocketMain-flyUp .7s forwards;animation-delay:1s;opacity:0;transform:translateY(70px)}@keyframes rocketMain-flyUp{to{transform:translateY(0);opacity:1}}#lock__lock{animation:lock__lock-moveIn .8s forwards;animation-delay:1.2s;transform:translateX(20px);opacity:0}@keyframes lock__lock-moveIn{to{opacity:1;transform:translateX(0)}}#keyhole,#lock__lines{animation:lock__lines-moveIn 1s forwards;animation-delay:1.4s;opacity:0;stroke-dasharray:120;stroke-dashoffset:360}@keyframes lock__lines-moveIn{to{opacity:1;stroke-dasharray:120;stroke-dashoffset:260}}#keyhole{stroke-dasharray:10;animation:keyhole-drawIn .4s forwards;animation-delay:1.6s;stroke-dashoffset:10}@keyframes keyhole-drawIn{to{stroke-dasharray:10;opacity:1;stroke-dashoffset:20}}</style><path class="st0" d="M339.9 182.9h-2.5v-2.5c0-.9-.8-1.7-1.7-1.7s-1.7.8-1.7 1.7v2.5h-2.5c-.9 0-1.7.8-1.7 1.7 0 .9.8 1.7 1.7 1.7h2.5v2.5c0 .9.8 1.7 1.7 1.7.4 0 .9-.2 1.2-.5.3-.3.5-.8.5-1.2v-2.5h2.5c.4 0 .9-.2 1.2-.5s.5-.8.5-1.2c0-1-.7-1.7-1.7-1.7z" id="star4"/><path class="st0" d="M291.6 16.2h-3.1v-3.1c0-1.2-1-2.2-2.2-2.2-1.2 0-2.2 1-2.2 2.2v3.1H281c-1.2 0-2.2 1-2.2 2.2s1 2.2 2.2 2.2h3.1v3.1c0 1.2 1 2.2 2.2 2.2.6 0 1.1-.2 1.5-.6.4-.4.6-1 .6-1.5v-3.1h3.1c.6 0 1.1-.2 1.5-.6.4-.4.6-1 .6-1.5.2-1.4-.8-2.4-2-2.4z" id="star3"/><path class="st1" d="M57.6 54h-3.1v-3.1c0-1.2-1-2.2-2.2-2.2s-2.2 1-2.2 2.2V54H47c-1.2 0-2.2 1-2.2 2.2s1 2.2 2.2 2.2h3.1v3.1c0 1.2 1 2.2 2.2 2.2.6 0 1.1-.2 1.5-.6.4-.4.6-1 .6-1.5v-3.1h3.1c.6 0 1.1-.2 1.5-.6.4-.4.6-1 .6-1.5.2-1.4-.8-2.4-2-2.4z" id="star2"/><path class="st0" d="M48.3 183.5h-2v-2c0-.8-.6-1.4-1.4-1.4-.8 0-1.4.6-1.4 1.4v2h-2c-.8 0-1.4.6-1.4 1.4s.6 1.4 1.4 1.4h2v2c0 .8.6 1.4 1.4 1.4.4 0 .7-.2 1-.4.3-.3.4-.6.4-1v-2h2c.4 0 .7-.2 1-.4.3-.3.4-.6.4-1 0-.8-.6-1.4-1.4-1.4z" id="star1"/><g id="planetShadow"><circle class="st0" cx="335.1" cy="108.5" r="35.3"/><circle class="st2" cx="323.8" cy="88.3" r="5.4"/><circle class="st2" cx="337.4" cy="82.9" r="2.7"/></g><g id="planetOutline"><path class="st3" d="M312.2 134.2c5.4 3.3 11.8 5.3 18.7 5.3 19.7 0 35.7-16 35.7-35.7s-16-35.7-35.7-35.7c-16 0-29.6 10.6-34.1 25.1"/><path class="st3" d="M323.8 123.8c2.2.8 4.4 1.6 6.6 2.3 24 7.8 44.9 7.5 48.3-1.2 2-5.2-2.7-12.4-11.7-19.5m-63-25.1c-11.6-1.8-20.3-.3-22.7 4.8-.7 1.5-.9 3.2-.5 5.1"/></g><g id="mainCircle"><path class="st4" d="M48.6 309.7c-18.2-28-28.8-61.4-28.8-97.3 0-98.8 80.1-178.9 178.9-178.9 36.8 0 71 11.1 99.5 30.2M103.1 363.6c-7.9-5-15.4-10.6-22.4-16.7"/><path class="st5" d="M368.1 154.5c6.2 18.2 9.6 37.6 9.6 57.9 0 98.8-80.1 178.9-178.9 178.9"/><circle class="st4" cx="115.3" cy="105.8" r="17.5"/><circle class="st4" cx="89.5" cy="154.5" r="13.1"/></g><path class="st6" d="M38.1 239.4c3.6-3 8.2-5 13.3-5 11.2 0 20.4 9.1 20.4 20.4v.8c1.9-.4 3.7-.6 5.6-.7 12.7-8.4 28-13.3 44.4-13.3 25.9 0 49 12.2 63.8 31.1 4.3-3 9.5-4.8 15.1-4.8 8.6 0 16.2 4.1 21 10.5 12.8-8.4 28-13.3 44.5-13.3 11.7 0 22.9 2.5 32.9 7 6.3-13.4 20-22.7 35.8-22.7 7.6 0 14.6 2.2 20.6 5.8" id="clouds"/><path class="st1" d="M185.5 275.7c4.3-3 9.5-4.8 15.1-4.7 7.6 0 14.4 3.3 19.2 8.4l.2-67.7-42.1-.2-.2 55.5c2.8 2.8 5.4 5.7 7.8 8.7z" id="rocketTrail"/><g id="rocketMain"><g id="rocketBody"><path id="path302_8_" class="st7" d="M199.33 8.226c-9.4 0-47.8 49.1-47.8 106.9 0 56.1 16.9 92.1 17.1 92.5.2.5.6.8 1.1 1 .4.2 10.6 3.7 29.6 3.7s29.1-3.5 29.6-3.7c.5-.2.9-.6 1.1-1 .1-.4 17-36.4 17-92.5.1-57.8-38.4-106.9-47.7-106.9"/></g><g id="noseCone" class="st8"><path id="path306_6_" class="st9" d="M227.31 41c-11.1-20.1-23.2-32.8-28-32.8-4.8 0-16.9 12.8-28 32.8 3.1.9 12.3 3.2 28 3.2s24.9-2.2 28-3.2"/></g><circle id="windowBig" class="st0" cx="202.4" cy="101.6" r="14.4"/><circle id="windowBigLine" class="st10" cx="199.3" cy="98.6" r="14.4"/><circle id="windowSmall" class="st0" cx="202.4" cy="152.7" r="10.5"/><circle id="windowSmallLine" class="st10" cx="199.3" cy="150.3" r="10.5"/><path id="wingLeft" class="st11" d="M168.5 208.5c-9.6-26.7-15.6-55.1-17.4-84.7-13.9 18-22.1 40.6-22.1 65.1 0 16.4 3.7 32 10.3 45.9 2.2-14.3 14.3-25.6 29.2-26.3z"/><path id="wingRight" class="st11" d="M230 208.5c9.6-26.7 15.6-55.1 17.4-84.7 13.9 18 22.1 40.6 22.1 65.1 0 16.4-3.7 32-10.3 45.9-2.2-14.3-14.3-25.6-29.2-26.3z"/></g></svg>