<svg xmlns="http://www.w3.org/2000/svg" viewBox="0 0 419 349"><style>.st0{opacity:.22;fill:#80b341}.st1,.st2{fill:none;stroke-width:3;stroke-miterlimit:10}.st1{stroke-linecap:round;stroke-linejoin:round;stroke:#80b341}.st2{stroke:#e1ecd3}.st3{fill:#e1ecd3}.st4{stroke-dasharray:2,6}.st4,.st5{fill:none;stroke:#e1ecd3;stroke-width:3;stroke-linecap:round;stroke-miterlimit:10}.st6{stroke-width:2}.st6,.st7,.st8{fill:none;stroke:#80b341;stroke-linecap:round;stroke-linejoin:round;stroke-miterlimit:10}.st7{opacity:.22;stroke-width:6}.st8{stroke-width:4}#userCircle{stroke-dasharray:400;animation:userCircle-drawIn 2s forwards;animation-delay:.6s;stroke-dashoffset:1250}@keyframes userCircle-drawIn{to{stroke-dashoffset:1000}}#envatoCircle{animation:envatoCircle-fadeIn 2s forwards;animation-delay:.8s;opacity:0}@keyframes envatoCircle-fadeIn{to{opacity:1}}#envatoLeaf,#leafShadow{animation:envatoLeaf-drawIn .8s forwards;animation-delay:1.4s;opacity:0;transform:translateY(-10px)}@keyframes envatoLeaf-drawIn{to{transform:translateY(0);opacity:1}}#leafShadow{animation:leafShadow-moveIn .8s forwards;animation-delay:1.6s}@keyframes leafShadow-moveIn{to{transform:translateY(2px);opacity:1}}#userIcon{animation:userIcon-drawIn .7s forwards;animation-delay:1.4s;opacity:0;transform:translateY(10px)}@keyframes userIcon-drawIn{to{transform:translateY(0);opacity:1}}#lock__lock{animation:lock__lock-moveIn .8s forwards;animation-delay:1.2s;transform:translateX(20px);opacity:0}@keyframes lock__lock-moveIn{to{opacity:1;transform:translateX(0)}}#keyhole,#lock__lines{stroke-dasharray:120;animation:lock__lines-moveIn 1s forwards;animation-delay:1.4s;opacity:0;stroke-dashoffset:360}@keyframes lock__lines-moveIn{to{opacity:1;stroke-dasharray:120;stroke-dashoffset:260}}#keyhole{stroke-dasharray:10;animation:keyhole-drawIn .4s forwards;animation-delay:1.6s;stroke-dashoffset:10}@keyframes keyhole-drawIn{to{stroke-dasharray:10;opacity:1;stroke-dashoffset:20}}</style><path class="st0" d="M151.5 80.4c-2.5-1.2-9.6-.6-18.4 2.2-14.9 10.3-27.7 25.5-28.6 49.8-.3.6-1.6 0-1.9-.3-4-7.8-5.6-15.9-2.2-28 .6-.9-1.6-2.5-1.9-1.9-.6.6-3.7 4-5.9 7.8-10.3 17.7-3.4 40.5 14.3 50.4 18.1 10 40.5 3.4 50.4-14.3 11.6-20.9.7-61.9-5.8-65.7z" id="leafShadow"/><path class="st1" d="M147 75c-2.5-1.2-9.6-.6-18.4 2.2-14.9 10.3-27.7 25.5-28.6 49.8-.3.6-1.6 0-1.9-.3-4-7.8-5.6-15.9-2.2-28 .6-.9-1.6-2.5-1.9-1.9-.6.6-3.7 4-5.9 7.8-10.3 17.7-3.4 40.5 14.3 50.4 18.1 10 40.5 3.4 50.4-14.3 11.7-20.9.8-62-5.8-65.7z" id="envatoLeaf"/><g id="envatoCircle"><ellipse transform="rotate(-4.35 17.324 117.925) scale(.99998)" class="st2" cx="17.3" cy="117.9" rx="4.9" ry="4.9"/><ellipse transform="rotate(-4.35 21.902 151.484) scale(.99998)" class="st3" cx="21.9" cy="151.5" rx="2.9" ry="2.9"/><path class="st4" d="M237.7 129.5c-.6 9.8-2.5 19.7-5.8 29.5-6.6 19.2-18 35.5-32.5 47.8M163.7 19.3c31 10.6 54.1 33.8 65.8 61.8M103.4 16.1c5.6-1.3 11.3-2.1 17.1-2.5M37.4 60.8c13.2-19.1 31.9-33.3 53.1-40.9"/><ellipse transform="rotate(-4.35 234.848 93.513) scale(.99998)" class="st3" cx="234.9" cy="93.5" rx="4.9" ry="4.9"/><path class="st4" d="M37.6 187.1c-3.4-4.6-6.4-9.5-9.1-14.7"/><path class="st5" d="M104.8 230c-22.8-4.5-43.2-16.1-58.6-32.6"/></g><g id="userCircle"><path class="st1 circlePiece4" d="M161.8 272.4c-4.8-8.6-8.4-18-10.8-28-4.7-19.8-3.7-39.6 2-57.7"/><path class="st1 circlePiece3" d="M283.2 326.1c-31.9 7.5-63.8.3-88.6-17.2"/><path class="st1 circlePiece2" d="M335.9 296.7c-4 4.1-8.4 7.8-13.1 11.3"/><path class="st1 circlePiece1" d="M367.9 223.6c-.9 23.2-9.2 45.1-23.1 63"/><g><path class="st1" d="M193.9 131.9c8-5.7 17-10.4 26.7-13.8 19.2-6.8 39-8 57.6-4.4"/></g><ellipse transform="matrix(.06799 -.9977 .9977 .06799 153.657 402.687)" class="st6" cx="292.4" cy="119.1" rx="4.9" ry="4.9"/></g><path class="st1" d="M301.1 310.3c-6.7-14.8-26.3-25.6-33.3-25.6H264v-9.1h.4c1.5 0 3-.5 4.3-1.4 2.5-1.4 5.4-4.3 7.5-10.1 1.9-4 3.5-8.8 4.8-13.5.2 0 .3.1.5.1l1.1.1c2.7.2 5-1.7 5.2-4.4l3.7-11.8c.2-2.3-1.2-4.4-3.4-5v-22.7s.6-11.3-16.6-17.7l4.2-1.4s-4.2-2-11 0c0 0-1.1-2.5 2.3-4.2 0 0-14.6-.3-24.5 5.6l-.3-2.8s-22.5 3.4-23.6 20.3c-1.1 16.9 0 23.1 0 23.1h.3l-1.4.4c-2.6.7-4.1 3.4-3.4 5.9l5.7 10.9c.7 2.6 3.3 4.1 5.9 3.4 4.6 12.6 12.1 25.3 19.6 25.3h.6v9.1h-1.6c-7.7 0-24 8.1-32.8 19.9" id="userIcon"/><g id="lock__lines"><path class="st7" d="M361.5 157.9h46.2M361.5 176.3h34.8"/></g><g id="lock__lock"><path class="st1" d="M341 187.3h-21.9c-3.8 0-6.9-3.1-6.9-6.9v-17.8c0-3.8 3.1-6.9 6.9-6.9H341c3.8 0 6.9 3.1 6.9 6.9v17.8c0 3.8-3.1 6.9-6.9 6.9z"/><path class="st1" d="M312.2 164.7v-16.1c0-7.9 6.4-14.3 14.3-14.3h7.2c7.9 0 14.3 6.4 14.3 14.3v16.1"/></g><path class="st8" d="M330.1 168v7" id="keyhole"/></svg>