<?xml version="1.0" encoding="UTF-8" standalone="no"?>
<svg
   xmlns:dc="http://purl.org/dc/elements/1.1/"
   xmlns:cc="http://creativecommons.org/ns#"
   xmlns:rdf="http://www.w3.org/1999/02/22-rdf-syntax-ns#"
   xmlns:svg="http://www.w3.org/2000/svg"
   xmlns="http://www.w3.org/2000/svg"
   version="1.1"
   id="svg4170"
   viewBox="0 0 113.92469 129.95226"
   height="36.675415mm"
   width="32.152081mm">
  <defs
     id="defs4172" />
  <metadata
     id="metadata4175">
    <rdf:RDF>
      <cc:Work
         rdf:about="">
        <dc:format>image/svg+xml</dc:format>
        <dc:type
           rdf:resource="http://purl.org/dc/dcmitype/StillImage" />
        <dc:title></dc:title>
      </cc:Work>
    </rdf:RDF>
  </metadata>
  <g
     transform="translate(-19.675431,-54.818639)"
     id="layer1">
    <path
       style="fill:#88b227;fill-opacity:1"
       id="path7"
       d="m 116.81076,55.813101 c -3.8,-2.1 -14.7,-0.8 -27.799996,3.2 -23,15.7 -42.3,38.8 -43.7,75.899999 -0.2,0.9 -2.5,-0.1 -2.999997,-0.4 -6.2,-11.9 -8.6,-24.4 -3.5,-42.399999 1,-1.6 -2.2,-3.6 -2.8,-3 -1.1,1.1 -5.9,6.2 -9,11.599999 -15.6,27 -5.4,61.7 21.899997,76.9 27.3,15.2 61.699996,5.4 76.899996,-21.9 17.6,-31.5 1.3,-94.199999 -9,-99.899999 z"
       class="st0" />
  </g>
</svg>
